<?xml version="1.0" encoding="UTF-8"?>
<svg width="207px" height="104px" viewBox="0 0 207 104" version="1.1" xmlns="http://www.w3.org/2000/svg" xmlns:xlink="http://www.w3.org/1999/xlink">
    <!-- Generator: Sketch 52.1 (67048) - http://www.bohemiancoding.com/sketch -->
    <title>BQ logo up</title>
    <desc>Created with Sketch.</desc>
    <defs>
        <linearGradient x1="69.7893528%" y1="17.3206796%" x2="35.5788354%" y2="135.696214%" id="linearGradient-1">
            <stop stop-color="#21D4FD" offset="1.375847%"></stop>
            <stop stop-color="#B721FF" offset="99.6%"></stop>
        </linearGradient>
    </defs>
    <g id="Page-1" stroke="none" stroke-width="1" fill="none" fill-rule="evenodd">
        <g id="Artboard" transform="translate(-121.000000, -85.000000)">
            <g id="BQ-logo-up" transform="translate(121.000000, 85.000000)">
                <path d="M206.5,87.7 C202.3,62 142.9,17.6 121.1,5.2 C116.3,2.4 110.1,0.9 103.8,0.9 C97.5,0.9 91.6,2.4 86.8,5.2 C71.6,14.1 21.8,48.9 5.9,75.6 C5.9,75.6 5.9,75.6 5.9,75.6 C3.5,79.7 1.8,83.7 1.2,87.3 C0.4,92.2 1.5,96.4 4.4,99.7 C6.8,102.4 10.1,103.8 14.2,103.8 C25.4,103.8 41.6,93 58.8,81.5 C75.6,70.2 93.1,58.6 103.9,58.6 C106.2,58.6 108.8,59.2 111.5,60.1 C111.6,60.1 111.7,60.1 111.7,60.2 C115.1,61.4 118.7,63.1 122.7,65.3 C123.1,65.5 123.5,65.8 123.9,66 C125.5,66.9 127.1,67.8 128.7,68.8 C134.8,72.5 141.1,76.8 147.4,81 C156.1,86.9 164.6,92.6 172.3,96.9 C180.1,101.2 187.1,103.9 193,103.9 C197.3,103.9 200.8,102.4 203.4,99.5 C206.2,96.5 207.2,92.5 206.5,87.7 Z" id="Path" fill="url(#linearGradient-1)"></path>
                <path d="M111.5,60.2 C108.7,59.2 106.1,58.7 103.9,58.7 C93.1,58.7 75.7,70.3 58.8,81.6 C41.6,93 25.4,103.9 14.2,103.9 C10.1,103.9 6.8,102.5 4.4,99.8 C1.5,96.5 0.4,92.3 1.2,87.4 C1.8,83.8 3.4,79.8 5.9,75.7 C5.9,75.7 5.9,75.7 5.9,75.7 C43.7,40 87.8,50.3 111.5,60.2 Z" id="Path" fill="#1D1D1B" opacity="0.4"></path>
            </g>
        </g>
    </g>
</svg>